<svg xmlns="http://www.w3.org/2000/svg" viewBox="0 0 64 64" width="64" height="64">
  <defs>
    <linearGradient id="g" x1="0" y1="0" x2="1" y2="1">
      <stop offset="0" stop-color="#c9a961"/>
      <stop offset="1" stop-color="#9a7e50"/>
    </linearGradient>
  </defs>
  <rect width="64" height="64" rx="16" fill="#fcfaf7"/>
  <circle cx="32" cy="32" r="22" fill="none" stroke="url(#g)" stroke-width="1.2" opacity="0.5"/>
  <path d="M32 16c4 7 4 13 0 20-4-7-4-13 0-20zM32 48c-4-7-4-13 0-20 4 7 4 13 0 20zM16 32c7-4 13-4 20 0-7 4-13 4-20 0zM48 32c-7 4-13 4-20 0 7-4 13-4 20 0z" fill="url(#g)"/>
  <circle cx="32" cy="32" r="3.2" fill="#9a7e50"/>
</svg>
